<svg xmlns="http://www.w3.org/2000/svg" version="1.1" xmlns:xlink="http://www.w3.org/1999/xlink" xmlns:svgjs="http://svgjs.dev/svgjs" width="53" height="31"><svg width="53" height="31" viewBox="0 0 53 31" fill="none" xmlns="http://www.w3.org/2000/svg">
<path fill-rule="evenodd" clip-rule="evenodd" d="M1.18879 2.12159C0.72817 1.60339 1.09603 0.784225 1.78935 0.784225H45.9583C49.8275 0.784225 52.9643 3.92085 52.9643 7.79007V23.4832C52.9643 27.3523 49.8275 30.489 45.9583 30.489H24.2626C23.268 30.489 22.3209 30.0637 21.6602 29.3204L19.404 26.7822C18.9434 26.264 19.3112 25.4448 20.0046 25.4448H45.9583C47.0417 25.4448 47.92 24.5666 47.92 23.4832V7.79007C47.92 6.7067 47.0417 5.82845 45.9583 5.82845H6.04739C5.05281 5.82845 4.10572 5.40311 3.44496 4.65977L1.18879 2.12159Z" fill="#02A99B"></path>
<path fill-rule="evenodd" clip-rule="evenodd" d="M20.3251 0.583344L33.2428 14.6262C33.5736 14.986 34.1406 14.9886 34.4748 14.6318L45.8421 2.50065L49.5228 5.94965L38.1558 18.0808C35.8159 20.5779 31.847 20.5597 29.5302 18.0411L16.6127 3.99831L20.3251 0.583344Z" fill="#02A99B"></path>
<path fill-rule="evenodd" clip-rule="evenodd" d="M11.0091 15.0149C10.5453 14.4974 10.9126 13.675 11.6075 13.675H19.6783C20.4179 13.675 21.0175 14.2746 21.0175 15.0142V17.38C21.0175 18.1196 20.4179 18.7192 19.6783 18.7192H15.2864C14.6775 18.7192 14.0973 18.4601 13.6908 18.0067L11.0091 15.0149Z" fill="#02A99B"></path>
</svg><style>@media (prefers-color-scheme: light) { :root { filter: none; } }
@media (prefers-color-scheme: dark) { :root { filter: none; } }
</style></svg>